<svg width="23" height="22" viewBox="0 0 23 22" fill="none" xmlns="http://www.w3.org/2000/svg">
<path d="M22.2803 11C22.2803 4.92422 17.3561 0 11.2803 0C5.20449 0 0.280273 4.92422 0.280273 11C0.280273 17.0758 5.20449 22 11.2803 22C11.3447 22 11.4092 22 11.4736 21.9957V13.4363H9.11035V10.682H11.4736V8.65391C11.4736 6.30352 12.9088 5.02305 15.0057 5.02305C16.0111 5.02305 16.8748 5.09609 17.124 5.13047V7.58828H15.6803C14.5416 7.58828 14.3182 8.12969 14.3182 8.92461V10.6777H17.0467L16.69 13.432H14.3182V21.5746C18.9158 20.2555 22.2803 16.023 22.2803 11Z" fill="#231F20"/>
</svg>
