<svg width="22" height="23" viewBox="0 0 22 23" fill="none" xmlns="http://www.w3.org/2000/svg">
<g id="Group 172">
<path id="Subtract" fill-rule="evenodd" clip-rule="evenodd" d="M0 11.2778C0 5.20363 4.9258 0.277832 11 0.277832C17.0742 0.277832 22 5.20363 22 11.2778C22 17.352 17.0742 22.2778 11 22.2778C4.9258 22.2778 0 17.352 0 11.2778ZM8.5411 5.35656C9.35783 5.28327 10.1783 5.26117 10.9978 5.2904C11.8184 5.26104 12.6401 5.28313 13.4579 5.35656C13.9577 5.35497 14.4535 5.44465 14.9211 5.6212C15.3244 5.75182 15.6896 5.97893 15.9852 6.2828C16.2935 6.57986 16.5238 6.94837 16.6556 7.35568C16.8325 7.82318 16.9226 8.31905 16.9214 8.81891C16.9946 9.63563 17.0167 10.4561 16.9875 11.2756C16.9875 12.2462 16.963 12.7014 16.9439 13.0581C16.9315 13.2877 16.9214 13.4765 16.9214 13.7357C16.9226 14.2375 16.8317 14.7353 16.6534 15.2044C16.3738 16.016 15.7361 16.6538 14.9244 16.9334C14.4569 17.1103 13.961 17.2003 13.4612 17.1991C12.6434 17.2725 11.8217 17.2946 11.0011 17.2653C10.1806 17.2946 9.35893 17.2725 8.5411 17.1991C8.03773 17.1986 7.53875 17.1055 7.06904 16.9245C6.66578 16.7939 6.30051 16.5668 6.00497 16.2629C5.7011 15.9674 5.47399 15.6021 5.34337 15.1989C5.16682 14.7313 5.07714 14.2354 5.07873 13.7357C5.0053 12.9178 4.9832 12.0962 5.01257 11.2756C4.98334 10.4561 5.00544 9.63563 5.07873 8.81891C5.04256 8.31382 5.13354 7.80772 5.34337 7.34686C5.47399 6.9436 5.7011 6.57833 6.00497 6.2828C6.30207 5.97817 6.66932 5.75101 7.07456 5.6212C7.54316 5.44426 8.0402 5.35457 8.5411 5.35656ZM13.3903 6.42048C12.5947 6.34633 11.795 6.32423 10.9965 6.35432C10.1963 6.32587 9.39518 6.34981 8.59817 6.426C8.21226 6.4213 7.8289 6.489 7.46794 6.62558C7.19733 6.69328 6.96154 6.85912 6.80634 7.0909C6.61474 7.28337 6.45738 7.50711 6.34101 7.75249C6.20443 8.11345 6.13673 8.49681 6.14143 8.88272C6.06728 9.67838 6.04518 10.478 6.07527 11.2766C6.07527 12.266 6.10071 12.7186 6.12004 13.0625C6.13188 13.2732 6.14143 13.443 6.14143 13.6705C6.13687 14.056 6.20457 14.439 6.34101 14.7996C6.57364 15.2979 6.97467 15.6981 7.47345 15.9298C7.83441 16.0664 8.21777 16.1341 8.60368 16.1294C9.39935 16.2035 10.199 16.2256 10.9976 16.1955C11.987 16.1955 12.4396 16.1701 12.7835 16.1508C12.9942 16.1389 13.164 16.1294 13.3915 16.1294C13.777 16.1339 14.16 16.0662 14.5206 15.9298C15.0183 15.698 15.4185 15.2982 15.6508 14.8007C15.7874 14.4397 15.8551 14.0564 15.8504 13.6705C15.9246 12.8744 15.9467 12.0744 15.9166 11.2755C15.9166 10.286 15.8911 9.83344 15.8718 9.48956C15.8599 9.27891 15.8504 9.10906 15.8504 8.88161C15.8552 8.49534 15.7875 8.11159 15.6508 7.75029C15.4187 7.25234 15.0185 6.85214 14.5206 6.62006C14.1596 6.48348 13.7763 6.41579 13.3903 6.42048ZM10.9964 8.21671C10.1812 8.20346 9.39548 8.52146 8.81895 9.09799C8.24241 9.67452 7.92441 10.4603 7.93765 11.2755C7.93765 12.9648 9.30712 14.3342 10.9964 14.3342C12.6858 14.3342 14.0552 12.9648 14.0552 11.2755C14.0552 9.58616 12.6858 8.21671 10.9964 8.21671ZM9.57582 12.6977C9.95205 13.0741 10.4652 13.2813 10.9974 13.2717V13.2706C11.5293 13.2802 12.0423 13.0732 12.4185 12.697C12.7947 12.3208 13.0018 11.8078 12.9921 11.2758C13.0018 10.7439 12.7947 10.2309 12.4185 9.85472C12.0423 9.47852 11.5293 9.27147 10.9974 9.28114C10.4654 9.27147 9.95242 9.47852 9.57622 9.85472C9.20003 10.2309 8.99297 10.7439 9.00264 11.2758C8.99267 11.808 9.19959 12.3213 9.57582 12.6977ZM14.1892 7.35254C13.7854 7.35254 13.4581 7.67985 13.4581 8.0836C13.4581 8.48736 13.7854 8.81466 14.1892 8.81466C14.593 8.81466 14.9203 8.48736 14.9203 8.0836C14.9167 7.68134 14.5915 7.35613 14.1892 7.35254Z" fill="#231F20"/>
</g>
</svg>
