<svg width="170" height="56" viewBox="0 0 170 56" fill="none" xmlns="http://www.w3.org/2000/svg">
<g clip-path="url(#clip0_98_405)">
<path d="M62.9999 17.7449H67.0599C67.0599 18.6732 67.4286 19.5634 68.085 20.2198C68.7414 20.8762 69.6316 21.2449 70.5599 21.2449C71.0368 21.2736 71.5146 21.2043 71.9638 21.0413C72.413 20.8783 72.8241 20.625 73.1716 20.2971C73.5192 19.9692 73.796 19.5736 73.9848 19.1347C74.1737 18.6957 74.2707 18.2228 74.2699 17.7449V1.92493H78.2249V17.7449C78.0933 19.6928 77.2267 21.5181 75.8004 22.8513C74.3742 24.1845 72.4947 24.9261 70.5424 24.9261C68.59 24.9261 66.7105 24.1845 65.2843 22.8513C63.858 21.5181 62.9914 19.6928 62.8599 17.7449H62.9999Z" fill="#231F20"/>
<path d="M99.5399 7.90992V24.8499H95.8299V22.2249C95.1517 23.1665 94.2572 23.9313 93.2218 24.4551C92.1864 24.9789 91.0403 25.2464 89.88 25.2349C88.7419 25.2269 87.6173 24.9886 86.5737 24.5345C85.5302 24.0804 84.5893 23.4198 83.8078 22.5925C83.0263 21.7652 82.4203 20.7883 82.0262 19.7206C81.6322 18.653 81.4583 17.5166 81.515 16.3799C81.4534 15.2404 81.6237 14.1003 82.0155 13.0285C82.4073 11.9567 83.0126 10.9755 83.7946 10.1444C84.5766 9.31333 85.5191 8.64956 86.5651 8.19328C87.6111 7.73701 88.7388 7.49773 89.88 7.48992C91.0428 7.48536 92.1899 7.75944 93.2251 8.28922C94.2603 8.819 95.1535 9.58905 95.8299 10.5349V7.90992H99.5399ZM95.8299 16.3799C95.8299 14.9875 95.2768 13.6522 94.2923 12.6676C93.3077 11.683 91.9723 11.1299 90.58 11.1299C89.1876 11.1299 87.8522 11.683 86.8677 12.6676C85.8831 13.6522 85.33 14.9875 85.33 16.3799C85.33 17.7723 85.8831 19.1077 86.8677 20.0922C87.8522 21.0768 89.1876 21.6299 90.58 21.6299C91.9723 21.6299 93.3077 21.0768 94.2923 20.0922C95.2768 19.1077 95.8299 17.7723 95.8299 16.3799Z" fill="#231F20"/>
<path d="M122.01 16.3799C122.067 17.5165 121.893 18.6529 121.499 19.7206C121.105 20.7882 120.499 21.7651 119.717 22.5924C118.936 23.4197 117.995 24.0803 116.951 24.5345C115.908 24.9886 114.783 25.2268 113.645 25.2349C112.479 25.249 111.327 24.983 110.286 24.4592C109.244 23.9354 108.344 23.1691 107.66 22.2249V31.1499H103.95V7.90985H107.66V10.4999C108.342 9.55125 109.241 8.77978 110.282 8.25001C111.324 7.72024 112.477 7.44758 113.645 7.45485C114.788 7.46737 115.916 7.71102 116.962 8.17113C118.008 8.63125 118.951 9.29832 119.732 10.1322C120.514 10.966 121.118 11.9494 121.51 13.0231C121.901 14.0968 122.071 15.2387 122.01 16.3799ZM118.16 16.3799C118.16 14.9875 117.607 13.6521 116.622 12.6675C115.638 11.683 114.302 11.1299 112.91 11.1299C111.518 11.1299 110.182 11.683 109.198 12.6675C108.213 13.6521 107.66 14.9875 107.66 16.3799C107.66 17.7722 108.213 19.1076 109.198 20.0922C110.182 21.0767 111.518 21.6299 112.91 21.6299C114.302 21.6299 115.638 21.0767 116.622 20.0922C117.607 19.1076 118.16 17.7722 118.16 16.3799Z" fill="#231F20"/>
<path d="M134.12 11.3048H130.62V24.8498H126.77V11.3048H123.27V7.80485H126.77V3.70985L130.515 2.90485V7.90985H134.015L134.12 11.3048Z" fill="#231F20"/>
<path d="M136.5 2.69494C136.5 2.3824 136.562 2.07291 136.681 1.78415C136.801 1.4954 136.976 1.23303 137.197 1.01203C137.418 0.791024 137.68 0.615714 137.969 0.496108C138.258 0.376502 138.567 0.314941 138.88 0.314941C139.193 0.314941 139.502 0.376502 139.791 0.496108C140.08 0.615714 140.342 0.791024 140.563 1.01203C140.784 1.23303 140.959 1.4954 141.079 1.78415C141.198 2.07291 141.26 2.3824 141.26 2.69494C141.26 3.32616 141.009 3.93152 140.563 4.37786C140.117 4.82419 139.511 5.07494 138.88 5.07494C138.249 5.07494 137.643 4.82419 137.197 4.37786C136.751 3.93152 136.5 3.32616 136.5 2.69494ZM137.025 7.90994H140.735V24.8499H137.095L137.025 7.90994Z" fill="#231F20"/>
<path d="M161.385 14.175V24.8499H157.5V15.3999C157.546 14.832 157.469 14.2607 157.276 13.7247C157.083 13.1887 156.777 12.7003 156.379 12.2924C155.981 11.8845 155.5 11.5666 154.969 11.3601C154.438 11.1535 153.869 11.0631 153.3 11.0949C152.709 11.0493 152.115 11.1303 151.558 11.3325C151.001 11.5348 150.493 11.8536 150.069 12.2678C149.645 12.6819 149.314 13.1818 149.099 13.734C148.883 14.2862 148.788 14.878 148.82 15.4699V24.8499H145.215V7.90995H148.96V10.255C149.626 9.37767 150.49 8.67003 151.481 8.18958C152.473 7.70912 153.563 7.46941 154.665 7.48995C155.559 7.43405 156.455 7.56837 157.293 7.88407C158.131 8.19977 158.893 8.68965 159.528 9.3214C160.163 9.95314 160.657 10.7124 160.977 11.549C161.297 12.3857 161.436 13.2807 161.385 14.175Z" fill="#231F20"/>
<path d="M164.99 2.69494C164.99 2.06373 165.241 1.45836 165.687 1.01203C166.133 0.565691 166.739 0.314941 167.37 0.314941C168.001 0.314941 168.607 0.565691 169.053 1.01203C169.499 1.45836 169.75 2.06373 169.75 2.69494C169.75 3.32616 169.499 3.93152 169.053 4.37785C168.607 4.82419 168.001 5.07494 167.37 5.07494C166.739 5.07494 166.133 4.82419 165.687 4.37785C165.241 3.93152 164.99 3.32616 164.99 2.69494ZM165.48 7.90994H169.225V24.8499H165.48V7.90994Z" fill="#231F20"/>
<path d="M119.805 35.7349V37.2749H114.765V27.7199H116.41V35.7349H119.805Z" fill="#231F20"/>
<path d="M120.505 33.7399C120.484 32.9798 120.691 32.2307 121.099 31.5889C121.506 30.9471 122.097 30.4418 122.794 30.138C123.491 29.8341 124.263 29.7454 125.011 29.8834C125.758 30.0214 126.448 30.3797 126.991 30.9124C127.533 31.445 127.905 32.1277 128.056 32.8728C128.208 33.6179 128.134 34.3914 127.843 35.094C127.553 35.7967 127.058 36.3964 126.424 36.8161C125.79 37.2359 125.045 37.4566 124.285 37.4499C123.791 37.4641 123.298 37.3783 122.838 37.1978C122.378 37.0172 121.958 36.7456 121.605 36.3992C121.253 36.0528 120.973 35.6387 120.784 35.1818C120.595 34.7248 120.5 34.2344 120.505 33.7399ZM126.49 33.7399C126.49 33.3038 126.361 32.8775 126.118 32.5149C125.876 32.1523 125.532 31.8697 125.129 31.7028C124.726 31.5359 124.282 31.4922 123.855 31.5773C123.427 31.6624 123.034 31.8724 122.726 32.1808C122.417 32.4891 122.207 32.882 122.122 33.3097C122.037 33.7375 122.081 34.1808 122.248 34.5837C122.415 34.9866 122.697 35.331 123.06 35.5733C123.422 35.8156 123.849 35.9449 124.285 35.9449C124.576 35.9497 124.865 35.8958 125.134 35.7867C125.404 35.6776 125.649 35.5153 125.855 35.3096C126.06 35.1039 126.223 34.859 126.332 34.5893C126.441 34.3196 126.495 34.0308 126.49 33.7399Z" fill="#231F20"/>
<path d="M136.5 30.2049V36.5049C136.5 37.4332 136.131 38.3234 135.475 38.9798C134.819 39.6361 133.928 40.0049 133 40.0049C132.205 40.03 131.425 39.7838 130.789 39.3066C130.153 38.8295 129.698 38.15 129.5 37.3799H131.11C131.273 37.7371 131.542 38.0358 131.88 38.236C132.217 38.4362 132.608 38.5283 133 38.4999C133.28 38.5104 133.559 38.4619 133.819 38.3573C134.079 38.2528 134.314 38.0947 134.509 37.8933C134.704 37.6919 134.854 37.4517 134.95 37.1883C135.046 36.925 135.085 36.6444 135.065 36.3649V36.0499C134.775 36.434 134.4 36.7449 133.968 36.9576C133.536 37.1703 133.061 37.279 132.58 37.2749C131.619 37.2749 130.698 36.8932 130.019 36.2139C129.339 35.5345 128.958 34.6131 128.958 33.6524C128.958 32.6916 129.339 31.7703 130.019 31.0909C130.698 30.4116 131.619 30.0299 132.58 30.0299C133.061 30.0258 133.536 30.1345 133.968 30.3472C134.4 30.5599 134.775 30.8708 135.065 31.2549V30.2049H136.5ZM134.96 33.7049C134.967 33.2674 134.844 32.8377 134.606 32.4705C134.368 32.1033 134.026 31.8152 133.623 31.643C133.221 31.4707 132.777 31.422 132.347 31.5031C131.917 31.5842 131.521 31.7914 131.209 32.0983C130.897 32.4052 130.683 32.798 130.595 33.2267C130.507 33.6553 130.549 34.1005 130.715 34.5054C130.881 34.9104 131.163 35.2568 131.526 35.5007C131.89 35.7446 132.317 35.8748 132.755 35.8749C133.055 35.8943 133.355 35.8514 133.637 35.7488C133.919 35.6463 134.177 35.4863 134.394 35.2791C134.611 35.0719 134.783 34.8219 134.898 34.5449C135.014 34.2679 135.07 33.97 135.065 33.6699L134.96 33.7049Z" fill="#231F20"/>
<path d="M138.215 28C138.21 27.8699 138.232 27.7403 138.279 27.6192C138.327 27.4981 138.399 27.3881 138.491 27.2961C138.583 27.2041 138.693 27.1321 138.814 27.0845C138.935 27.037 139.065 27.015 139.195 27.02C139.323 27.02 139.451 27.0453 139.57 27.0946C139.689 27.1438 139.797 27.216 139.888 27.307C139.979 27.398 140.051 27.506 140.1 27.6249C140.149 27.7438 140.175 27.8713 140.175 28C140.175 28.1287 140.149 28.2561 140.1 28.375C140.051 28.4939 139.979 28.6019 139.888 28.6929C139.797 28.7839 139.689 28.8561 139.57 28.9054C139.451 28.9546 139.323 28.98 139.195 28.98C139.065 28.9849 138.935 28.9629 138.814 28.9154C138.693 28.8679 138.583 28.7958 138.491 28.7038C138.399 28.6119 138.327 28.5018 138.279 28.3807C138.232 28.2596 138.21 28.13 138.215 28ZM138.425 30.17H140V37.17H138.46L138.425 30.17Z" fill="#231F20"/>
<path d="M141.365 35.2099H142.975C142.975 35.331 142.999 35.4508 143.048 35.5618C143.096 35.6728 143.167 35.7725 143.256 35.8548C143.344 35.937 143.449 35.9999 143.564 36.0396C143.678 36.0792 143.799 36.0946 143.92 36.0849C144.137 36.1047 144.354 36.0391 144.524 35.9019C144.694 35.7647 144.804 35.5667 144.83 35.3499C144.83 34.8249 144.305 34.5449 143.57 34.3699C142.835 34.1949 141.47 33.5649 141.47 32.1649C141.478 31.8628 141.548 31.5655 141.676 31.2916C141.804 31.0177 141.987 30.7731 142.214 30.5728C142.44 30.3726 142.705 30.2211 142.993 30.1277C143.28 30.0343 143.584 30.001 143.885 30.0299C144.187 30.011 144.489 30.0525 144.775 30.1518C145.06 30.2511 145.323 30.4062 145.548 30.6083C145.773 30.8103 145.955 31.0551 146.084 31.3284C146.213 31.6017 146.287 31.898 146.3 32.1999H144.725C144.699 31.9925 144.593 31.8034 144.429 31.6727C144.266 31.542 144.058 31.4801 143.85 31.4999C143.751 31.4903 143.65 31.5011 143.555 31.5315C143.46 31.5619 143.372 31.6114 143.297 31.6769C143.222 31.7424 143.161 31.8226 143.117 31.9125C143.074 32.0024 143.049 32.1002 143.045 32.1999C143.045 32.6899 143.57 32.9699 144.34 33.1799C145.11 33.3899 146.405 34.0549 146.405 35.3149C146.402 35.6325 146.332 35.946 146.201 36.2351C146.069 36.5242 145.879 36.7825 145.642 36.9935C145.404 37.2045 145.125 37.3635 144.823 37.4602C144.52 37.5569 144.201 37.5892 143.885 37.5549C143.563 37.5791 143.239 37.5363 142.934 37.4293C142.629 37.3223 142.349 37.1534 142.113 36.9332C141.876 36.713 141.687 36.4462 141.559 36.1497C141.43 35.8531 141.364 35.5332 141.365 35.2099Z" fill="#231F20"/>
<path d="M151.62 31.4999H150.115V37.1699H148.575V31.4999H147V30.0999H148.435V28.3499L150.115 27.9999V30.0649H151.62V31.4999Z" fill="#231F20"/>
<path d="M152.67 27.9999C152.67 27.8061 152.727 27.6166 152.835 27.4554C152.943 27.2943 153.096 27.1687 153.275 27.0945C153.454 27.0203 153.651 27.0009 153.841 27.0387C154.031 27.0765 154.206 27.1699 154.343 27.3069C154.48 27.444 154.573 27.6186 154.611 27.8087C154.649 27.9988 154.629 28.1959 154.555 28.3749C154.481 28.554 154.355 28.7071 154.194 28.8147C154.033 28.9224 153.844 28.9799 153.65 28.9799C153.52 28.9848 153.39 28.9628 153.269 28.9153C153.148 28.8678 153.038 28.7958 152.946 28.7038C152.854 28.6118 152.782 28.5018 152.734 28.3807C152.687 28.2595 152.665 28.1299 152.67 27.9999ZM152.88 30.1699H154.42V37.1699H152.88V30.1699Z" fill="#231F20"/>
<path d="M155.82 33.7399C155.82 33.2438 155.919 32.7526 156.112 32.2955C156.305 31.8384 156.588 31.4247 156.944 31.0787C157.299 30.7328 157.721 30.4618 158.183 30.2816C158.645 30.1015 159.139 30.0159 159.635 30.0299C160.536 29.9705 161.425 30.2614 162.116 30.8419C162.807 31.4223 163.248 32.2475 163.345 33.1449H161.735C161.612 32.6826 161.339 32.274 160.959 31.9828C160.579 31.6916 160.114 31.5342 159.635 31.5349C159.224 31.5306 158.819 31.6415 158.467 31.8551C158.116 32.0686 157.831 32.3763 157.645 32.7434C157.459 33.1104 157.379 33.5222 157.415 33.9321C157.451 34.342 157.601 34.7336 157.848 35.0628C158.095 35.392 158.429 35.6455 158.812 35.7947C159.196 35.9439 159.613 35.9829 160.018 35.9071C160.422 35.8314 160.797 35.644 161.101 35.3662C161.404 35.0883 161.624 34.7311 161.735 34.3349H163.345C163.248 35.2324 162.807 36.0575 162.116 36.638C161.425 37.2185 160.536 37.5094 159.635 37.4499C159.139 37.464 158.645 37.3784 158.183 37.1982C157.721 37.0181 157.299 36.747 156.944 36.4011C156.588 36.0552 156.305 35.6415 156.112 35.1844C155.919 34.7273 155.82 34.2361 155.82 33.7399Z" fill="#231F20"/>
<path d="M164.255 35.21H165.83C165.834 35.3295 165.862 35.447 165.912 35.5557C165.962 35.6644 166.033 35.7621 166.121 35.8434C166.209 35.9247 166.312 35.9878 166.424 36.0293C166.536 36.0707 166.655 36.0897 166.775 36.085C166.883 36.0996 166.994 36.0919 167.099 36.0624C167.205 36.0329 167.303 35.9822 167.388 35.9134C167.473 35.8446 167.544 35.7592 167.595 35.6623C167.646 35.5654 167.676 35.4591 167.685 35.35C167.685 34.825 167.16 34.545 166.46 34.37C165.76 34.195 164.36 33.565 164.36 32.165C164.363 31.8644 164.429 31.5678 164.553 31.294C164.677 31.0202 164.857 30.7752 165.081 30.5745C165.304 30.3737 165.568 30.2217 165.853 30.128C166.139 30.0342 166.441 30.0009 166.74 30.03C167.043 30.011 167.348 30.0522 167.635 30.1511C167.923 30.25 168.188 30.4046 168.415 30.6062C168.643 30.8079 168.829 31.0524 168.962 31.3259C169.094 31.5994 169.172 31.8964 169.19 32.2H167.58C167.554 31.999 167.453 31.8152 167.297 31.6855C167.141 31.5557 166.942 31.4895 166.74 31.5C166.641 31.4904 166.54 31.5011 166.445 31.5315C166.35 31.562 166.262 31.6114 166.187 31.6769C166.112 31.7424 166.05 31.8226 166.007 31.9125C165.964 32.0024 165.939 32.1002 165.935 32.2C165.935 32.69 166.425 32.97 167.195 33.18C167.965 33.39 169.26 34.055 169.26 35.315C169.262 35.6309 169.197 35.9437 169.069 36.2328C168.942 36.5219 168.754 36.7807 168.52 36.9922C168.285 37.2038 168.008 37.3633 167.708 37.4603C167.407 37.5573 167.089 37.5895 166.775 37.555C166.453 37.5791 166.129 37.5363 165.824 37.4293C165.519 37.3223 165.239 37.1534 165.002 36.9332C164.766 36.713 164.577 36.4463 164.449 36.1497C164.32 35.8532 164.254 35.5332 164.255 35.21Z" fill="#231F20"/>
<path d="M52.7449 38.115C53.5154 38.115 54.2543 37.8089 54.7991 37.2641C55.3439 36.7193 55.6499 35.9804 55.6499 35.21V3.91996C55.6713 3.78555 55.6459 3.64788 55.5781 3.5299C55.5103 3.41192 55.404 3.32076 55.2771 3.27163C55.1502 3.2225 55.0102 3.21836 54.8806 3.25991C54.751 3.30147 54.6396 3.38619 54.5649 3.49996L32.6549 37.17C32.6004 37.2642 32.5713 37.371 32.5703 37.4799C32.5694 37.5888 32.5967 37.6961 32.6496 37.7912C32.7025 37.8864 32.7791 37.9663 32.8721 38.023C32.965 38.0798 33.0711 38.1114 33.1799 38.115H52.7449Z" fill="#F6921E"/>
<path d="M17.5 2.90493V22.5049C17.5026 22.6098 17.5329 22.7122 17.5878 22.8016C17.6427 22.8911 17.7203 22.9644 17.8127 23.0141C17.9051 23.0639 18.0091 23.0883 18.114 23.085C18.2188 23.0816 18.321 23.0505 18.41 22.9949L52.08 1.11993C52.1789 1.04066 52.2516 0.933413 52.2885 0.812197C52.3255 0.690982 52.3251 0.561433 52.2873 0.440472C52.2495 0.319511 52.1761 0.212762 52.0766 0.134169C51.9772 0.0555756 51.8564 0.00879165 51.73 -7.19718e-05H20.475C20.0877 -0.00940819 19.7024 0.0588341 19.3418 0.200638C18.9812 0.342442 18.6527 0.554943 18.3755 0.825632C18.0982 1.09632 17.878 1.41973 17.7276 1.77682C17.5773 2.13392 17.4999 2.51748 17.5 2.90493V2.90493Z" fill="#F05A28"/>
<path d="M-8.47699e-05 37.9395C0.0154503 37.9918 0.0479835 38.0374 0.0923616 38.0691C0.13674 38.1008 0.190426 38.1167 0.244915 38.1145H15.0499C15.2109 38.1055 15.3623 38.0352 15.4729 37.918C15.5836 37.8008 15.6452 37.6457 15.6449 37.4845V28.6645C15.6466 28.554 15.6174 28.4452 15.5607 28.3503C15.504 28.2555 15.422 28.1783 15.3239 28.1274C15.2258 28.0765 15.1154 28.054 15.0052 28.0623C14.895 28.0706 14.7893 28.1095 14.6999 28.1745L-8.47699e-05 37.6595C-0.0246599 37.7021 -0.0375977 37.7503 -0.0375977 37.7995C-0.0375977 37.8486 -0.0246599 37.8969 -8.47699e-05 37.9395V37.9395Z" fill="#F6921E"/>
<path d="M18.1649 40.3546C18.0838 40.3544 18.0034 40.3709 17.9289 40.4029C17.8543 40.435 17.7871 40.482 17.7313 40.541C17.6756 40.6 17.6325 40.6698 17.6048 40.7461C17.577 40.8224 17.5652 40.9035 17.5699 40.9846V55.7546C17.5484 55.7918 17.5371 55.8341 17.5371 55.8771C17.5371 55.9201 17.5484 55.9623 17.5699 55.9996C17.7449 55.9996 17.8149 55.9996 17.8499 55.9996L27.5099 41.2996C27.5644 41.2053 27.5936 41.0985 27.5945 40.9896C27.5954 40.8807 27.5681 40.7735 27.5153 40.6783C27.4624 40.5831 27.3857 40.5032 27.2928 40.4465C27.1998 40.3898 27.0938 40.3581 26.9849 40.3546H18.1649Z" fill="#F05A28"/>
<path d="M17.4998 26.2849V37.4849C17.495 37.566 17.5069 37.6471 17.5346 37.7234C17.5624 37.7997 17.6055 37.8695 17.6612 37.9285C17.7169 37.9875 17.7842 38.0345 17.8587 38.0665C17.9333 38.0986 18.0136 38.1151 18.0948 38.1149H29.2948C29.394 38.1158 29.4916 38.0904 29.5777 38.0412C29.6637 37.992 29.7352 37.9208 29.7848 37.8349L53.3748 2.83493C53.4256 2.742 53.4449 2.6351 53.4299 2.53026C53.4148 2.42542 53.3662 2.32828 53.2913 2.25338C53.2164 2.17849 53.1193 2.12988 53.0145 2.11483C52.9096 2.09979 52.8027 2.11912 52.7098 2.16993L17.7098 25.8999C17.5933 25.9968 17.5182 26.1345 17.4998 26.2849V26.2849Z" fill="#EE4033"/>
</g>
<defs>
<clipPath id="clip0_98_405">
<rect width="169.75" height="56" fill="white"/>
</clipPath>
</defs>
</svg>
