<svg width="56" height="56" viewBox="0 0 56 56" fill="none" xmlns="http://www.w3.org/2000/svg">
<path d="M52.7449 38.115C53.5154 38.115 54.2543 37.8089 54.7991 37.2641C55.3439 36.7193 55.6499 35.9804 55.6499 35.21V3.91996C55.6713 3.78555 55.6459 3.64788 55.5781 3.5299C55.5103 3.41192 55.404 3.32076 55.2771 3.27163C55.1502 3.2225 55.0102 3.21836 54.8806 3.25991C54.751 3.30147 54.6396 3.38619 54.5649 3.49996L32.6549 37.17C32.6004 37.2642 32.5713 37.371 32.5703 37.4799C32.5694 37.5888 32.5967 37.6961 32.6496 37.7912C32.7025 37.8864 32.7791 37.9663 32.8721 38.023C32.965 38.0798 33.0711 38.1114 33.1799 38.115H52.7449Z" fill="#F6921E"/>
<path d="M17.5 2.90493V22.5049C17.5026 22.6098 17.5329 22.7122 17.5878 22.8016C17.6427 22.8911 17.7203 22.9644 17.8127 23.0141C17.9051 23.0639 18.0091 23.0883 18.114 23.085C18.2188 23.0816 18.321 23.0505 18.41 22.9949L52.08 1.11993C52.1789 1.04066 52.2516 0.933413 52.2885 0.812197C52.3255 0.690982 52.3251 0.561433 52.2873 0.440472C52.2495 0.319511 52.1761 0.212762 52.0766 0.134169C51.9772 0.0555756 51.8564 0.00879165 51.73 -7.19718e-05H20.475C20.0877 -0.00940819 19.7024 0.0588341 19.3418 0.200638C18.9812 0.342442 18.6527 0.554943 18.3755 0.825632C18.0982 1.09632 17.878 1.41973 17.7276 1.77682C17.5773 2.13392 17.4999 2.51748 17.5 2.90493Z" fill="#F05A28"/>
<path d="M-8.4769e-05 37.9395C0.0154503 37.9918 0.0479835 38.0374 0.0923616 38.0691C0.13674 38.1008 0.190426 38.1167 0.244915 38.1145H15.0499C15.2109 38.1055 15.3623 38.0352 15.4729 37.918C15.5836 37.8008 15.6452 37.6457 15.6449 37.4845V28.6645C15.6466 28.554 15.6174 28.4452 15.5607 28.3503C15.504 28.2555 15.422 28.1783 15.3239 28.1274C15.2258 28.0765 15.1154 28.054 15.0052 28.0623C14.895 28.0706 14.7893 28.1095 14.6999 28.1745L-8.4769e-05 37.6595C-0.0246599 37.7021 -0.0375977 37.7503 -0.0375977 37.7995C-0.0375977 37.8486 -0.0246599 37.8969 -8.4769e-05 37.9395Z" fill="#F6921E"/>
<path d="M18.1649 40.3546C18.0838 40.3544 18.0034 40.3709 17.9289 40.4029C17.8543 40.435 17.7871 40.482 17.7313 40.541C17.6756 40.6 17.6325 40.6698 17.6048 40.7461C17.577 40.8224 17.5652 40.9035 17.5699 40.9846V55.7546C17.5484 55.7918 17.5371 55.8341 17.5371 55.8771C17.5371 55.9201 17.5484 55.9623 17.5699 55.9996C17.7449 55.9996 17.8149 55.9996 17.8499 55.9996L27.5099 41.2996C27.5644 41.2053 27.5936 41.0985 27.5945 40.9896C27.5954 40.8807 27.5681 40.7735 27.5153 40.6783C27.4624 40.5831 27.3857 40.5032 27.2928 40.4465C27.1998 40.3898 27.0938 40.3581 26.9849 40.3546H18.1649Z" fill="#F05A28"/>
<path d="M17.4998 26.2849V37.4849C17.495 37.566 17.5069 37.6471 17.5346 37.7234C17.5624 37.7997 17.6055 37.8695 17.6612 37.9285C17.7169 37.9875 17.7842 38.0345 17.8587 38.0665C17.9333 38.0986 18.0136 38.1151 18.0948 38.1149H29.2948C29.394 38.1158 29.4916 38.0904 29.5777 38.0412C29.6637 37.992 29.7352 37.9208 29.7848 37.8349L53.3748 2.83493C53.4256 2.742 53.4449 2.6351 53.4299 2.53026C53.4148 2.42542 53.3662 2.32828 53.2913 2.25338C53.2164 2.17849 53.1193 2.12988 53.0145 2.11483C52.9096 2.09979 52.8027 2.11912 52.7098 2.16993L17.7098 25.8999C17.5933 25.9968 17.5182 26.1345 17.4998 26.2849Z" fill="#EE4033"/>
</svg>
