<svg width="56" height="56" viewBox="0 0 56 56" fill="none" xmlns="http://www.w3.org/2000/svg">
<path d="M52.7449 38.115C53.5154 38.115 54.2543 37.8089 54.7991 37.2641C55.3439 36.7193 55.6499 35.9804 55.6499 35.21V3.91996C55.6713 3.78555 55.6459 3.64788 55.5781 3.5299C55.5103 3.41192 55.404 3.32076 55.2771 3.27163C55.1502 3.2225 55.0102 3.21836 54.8806 3.25991C54.751 3.30147 54.6396 3.38619 54.5649 3.49996L32.6549 37.17C32.6004 37.2642 32.5713 37.371 32.5703 37.4799C32.5694 37.5888 32.5967 37.6961 32.6496 37.7912C32.7025 37.8864 32.7791 37.9663 32.8721 38.023C32.965 38.0798 33.0711 38.1114 33.1799 38.115H52.7449Z" fill="white"/>
<path d="M17.5 2.90493V22.5049C17.5026 22.6098 17.5329 22.7122 17.5878 22.8016C17.6427 22.8911 17.7203 22.9644 17.8127 23.0141C17.9051 23.0639 18.0091 23.0883 18.114 23.085C18.2188 23.0816 18.321 23.0505 18.41 22.9949L52.08 1.11993C52.1789 1.04066 52.2516 0.933413 52.2885 0.812197C52.3255 0.690982 52.3251 0.561433 52.2873 0.440472C52.2495 0.319511 52.1761 0.212762 52.0766 0.134169C51.9772 0.0555756 51.8564 0.00879165 51.73 -7.19718e-05H20.475C20.0877 -0.00940819 19.7024 0.0588341 19.3418 0.200638C18.9812 0.342442 18.6527 0.554943 18.3755 0.825632C18.0982 1.09632 17.878 1.41973 17.7276 1.77682C17.5773 2.13392 17.4999 2.51748 17.5 2.90493Z" fill="white"/>
<path d="M-8.4769e-05 37.9399C0.0154503 37.9922 0.0479835 38.0378 0.0923616 38.0695C0.13674 38.1012 0.190426 38.1172 0.244915 38.1149H15.0499C15.2109 38.106 15.3623 38.0357 15.4729 37.9185C15.5836 37.8013 15.6452 37.6461 15.6449 37.4849V28.6649C15.6466 28.5544 15.6174 28.4456 15.5607 28.3508C15.504 28.2559 15.422 28.1787 15.3239 28.1278C15.2258 28.0769 15.1154 28.0544 15.0052 28.0627C14.895 28.071 14.7893 28.1099 14.6999 28.1749L-8.4769e-05 37.6599C-0.0246599 37.7025 -0.0375977 37.7508 -0.0375977 37.7999C-0.0375977 37.8491 -0.0246599 37.8974 -8.4769e-05 37.9399Z" fill="white"/>
<path d="M18.1649 40.355C18.0838 40.3548 18.0034 40.3713 17.9289 40.4033C17.8543 40.4354 17.7871 40.4824 17.7313 40.5414C17.6756 40.6004 17.6325 40.6702 17.6048 40.7465C17.577 40.8228 17.5652 40.9039 17.5699 40.985V55.755C17.5484 55.7922 17.5371 55.8344 17.5371 55.8775C17.5371 55.9205 17.5484 55.9627 17.5699 56C17.7449 56 17.8149 56 17.8499 56L27.5099 41.3C27.5644 41.2057 27.5936 41.0989 27.5945 40.99C27.5954 40.8811 27.5681 40.7739 27.5153 40.6787C27.4624 40.5835 27.3857 40.5036 27.2928 40.4469C27.1998 40.3902 27.0938 40.3585 26.9849 40.355H18.1649Z" fill="white"/>
<path d="M17.4998 26.2849V37.4849C17.495 37.566 17.5069 37.6471 17.5346 37.7234C17.5624 37.7997 17.6055 37.8695 17.6612 37.9285C17.7169 37.9875 17.7842 38.0345 17.8587 38.0665C17.9333 38.0986 18.0136 38.1151 18.0948 38.1149H29.2948C29.394 38.1158 29.4916 38.0904 29.5777 38.0412C29.6637 37.992 29.7352 37.9208 29.7848 37.8349L53.3748 2.83493C53.4256 2.742 53.4449 2.6351 53.4299 2.53026C53.4148 2.42542 53.3662 2.32828 53.2913 2.25338C53.2165 2.17849 53.1193 2.12988 53.0145 2.11483C52.9096 2.09979 52.8027 2.11912 52.7098 2.16993L17.7098 25.8999C17.5933 25.9968 17.5182 26.1345 17.4998 26.2849Z" fill="white"/>
</svg>
