<svg width="23" height="22" viewBox="0 0 23 22" fill="none" xmlns="http://www.w3.org/2000/svg">
<path fill-rule="evenodd" clip-rule="evenodd" d="M0.280273 11C0.280273 4.9258 5.20607 0 11.2803 0C17.3545 0 22.2803 4.9258 22.2803 11C22.2803 17.0742 17.3545 22 11.2803 22C5.20607 22 0.280273 17.0742 0.280273 11ZM5.40479 16.6287H8.08379V8.56885H5.40479V16.6287ZM6.74438 7.46851H6.72693C5.82794 7.46851 5.24652 6.84966 5.24652 6.07622C5.24652 5.28532 5.84573 4.68359 6.76218 4.68359C7.67862 4.68359 8.24258 5.28532 8.26004 6.07622C8.26004 6.84966 7.67862 7.46851 6.74438 7.46851ZM15.065 16.6289H17.7437V12.0074C17.7437 9.53185 16.4221 8.37991 14.6595 8.37991C13.2382 8.37991 12.6012 9.16107 12.2452 9.71027V8.56908H9.56639C9.60147 9.32523 9.56639 16.6289 9.56639 16.6289H12.2452V12.1279C12.2452 11.8871 12.2625 11.6464 12.3333 11.4742C12.527 10.993 12.9678 10.4944 13.7078 10.4944C14.6772 10.4944 15.065 11.2335 15.065 12.3171V16.6289Z" fill="#231F20"/>
</svg>
