<svg width="23" height="22" viewBox="0 0 23 22" fill="none" xmlns="http://www.w3.org/2000/svg">
<path fill-rule="evenodd" clip-rule="evenodd" d="M11.2775 0H11.283C17.3481 0 22.2803 4.93488 22.2803 11C22.2803 17.0651 17.3481 22 11.283 22C9.0459 22 6.97102 21.3345 5.23165 20.1822L1.00352 21.5339L2.3744 17.4474C1.05577 15.6365 0.280273 13.4062 0.280273 11C0.280273 4.9335 5.2124 0 11.2775 0ZM15.5249 17.0859C16.365 16.9044 17.4183 16.2829 17.6837 15.5335C17.949 14.7828 17.949 14.1434 17.872 14.0072C17.8098 13.8992 17.6628 13.8285 17.4434 13.7228C17.3862 13.6953 17.3242 13.6654 17.2574 13.6319C16.9343 13.471 15.3627 12.6941 15.0657 12.591C14.7742 12.481 14.4964 12.5195 14.2764 12.8302C14.2346 12.8888 14.1928 12.9475 14.1513 13.0059C13.8859 13.3792 13.6299 13.7393 13.417 13.9688C13.2232 14.175 12.9069 14.2011 12.6415 14.0911C12.6126 14.0791 12.5794 14.0657 12.5423 14.0507C12.1221 13.881 11.1902 13.5046 10.062 12.5002C9.11053 11.6532 8.46428 10.5986 8.27728 10.2824C8.09368 9.96513 8.25205 9.7791 8.39842 9.60716C8.40113 9.60398 8.40383 9.6008 8.40653 9.59762C8.5009 9.48086 8.59248 9.38364 8.68451 9.28593C8.75072 9.21564 8.81715 9.14511 8.88503 9.06688C8.89511 9.05526 8.90492 9.04399 8.91446 9.03301C9.05861 8.86727 9.14444 8.76858 9.24116 8.56225C9.35116 8.34912 9.27278 8.12912 9.19441 7.96688C9.14048 7.85325 8.80737 7.04502 8.52141 6.35121C8.39904 6.05431 8.28531 5.77836 8.20578 5.58675C7.99266 5.07662 7.83041 5.05737 7.50728 5.04362C7.49738 5.04313 7.48738 5.04262 7.47728 5.04211C7.37514 5.03694 7.26265 5.03125 7.13878 5.03125C6.71803 5.03125 6.27941 5.155 6.01403 5.42588C6.00476 5.43535 5.99509 5.44518 5.98506 5.45538C5.64556 5.80066 4.88928 6.5698 4.88928 8.103C4.88928 9.63916 5.97925 11.1258 6.18092 11.4009C6.18648 11.4085 6.19136 11.4152 6.19553 11.4209C6.20767 11.4368 6.23054 11.4699 6.26383 11.5181C6.67562 12.1145 8.68131 15.019 11.6722 16.2581C14.1994 17.3059 14.9502 17.2083 15.5249 17.0859Z" fill="#231F20"/>
</svg>
