<svg width="28" height="22" viewBox="0 0 28 22" fill="none" xmlns="http://www.w3.org/2000/svg">
<path fill-rule="evenodd" clip-rule="evenodd" d="M2.13125 0.851765C4.83716 4.26567 8.8515 6.41022 13.2137 6.77228C12.8159 5.11079 13.2189 3.36022 14.3043 2.03482C15.3897 0.709429 17.0343 -0.0402648 18.755 0.00597805C20.3555 -0.0680802 21.91 0.548814 23.0175 1.69755C24.2658 1.66791 25.4674 1.22086 26.4275 0.428872C26.0763 1.62699 25.3247 2.67092 24.2962 3.38913C25.3517 3.39489 26.3869 3.10145 27.28 2.54334C26.7178 3.88188 25.6454 4.94587 24.2962 5.5036C24.528 9.72549 23.0277 13.8607 20.1371 16.9676C17.2465 20.0744 13.2116 21.8884 8.95125 21.9964C5.77813 22.0635 2.65844 21.1792 0 19.4591C2.84232 19.4912 5.64056 18.7606 8.09875 17.3446C5.86283 16.9966 3.94658 15.5707 2.98375 13.5386C3.85566 13.5612 4.72385 13.4176 5.54125 13.1157C3.04354 12.329 1.22103 10.1921 0.8525 7.61806C1.63979 8.06601 2.50927 8.35356 3.41 8.46385C1.14656 6.58849 0.603212 3.35406 2.13125 0.851765Z" fill="#231F20"/>
</svg>
